<svg aria-hidden="true" style="position: absolute; width: 0; height: 0; overflow: hidden;" version="1.1" xmlns="http://www.w3.org/2000/svg" xmlns:xlink="http://www.w3.org/1999/xlink">
<defs>
<symbol id="icon-menu" viewBox="0 0 28 32">
<path d="M0 6c0-1.106 0.894-2 2-2h24c1.106 0 2 0.894 2 2s-0.894 2-2 2h-24c-1.106 0-2-0.894-2-2zM0 16c0-1.106 0.894-2 2-2h24c1.106 0 2 0.894 2 2s-0.894 2-2 2h-24c-1.106 0-2-0.894-2-2zM28 26c0 1.106-0.894 2-2 2h-24c-1.106 0-2-0.894-2-2s0.894-2 2-2h24c1.106 0 2 0.894 2 2z"></path>
</symbol>
<symbol id="icon-sun" viewBox="0 0 32 32">
<path d="M24 16c0 4.418-3.582 8-8 8s-8-3.582-8-8v0c0-4.418 3.582-8 8-8s8 3.582 8 8v0z"></path>
<path d="M16 1.667c0.552 0 1 0.448 1 1v0 1.333c0 0.552-0.448 1-1 1s-1-0.448-1-1v0-1.333c0-0.552 0.448-1 1-1v0zM5.865 5.865c0.181-0.181 0.431-0.292 0.707-0.292s0.526 0.112 0.707 0.292v0l0.524 0.523c0.174 0.18 0.281 0.425 0.281 0.695 0 0.552-0.448 1-1 1-0.27 0-0.515-0.107-0.695-0.281l-0.524-0.524c-0.181-0.181-0.292-0.431-0.292-0.707s0.112-0.526 0.292-0.707v0zM26.135 5.865c0.181 0.181 0.292 0.431 0.292 0.707s-0.112 0.526-0.292 0.707v0l-0.524 0.524c-0.178 0.166-0.418 0.268-0.682 0.268-0.552 0-1-0.448-1-1 0-0.264 0.102-0.504 0.269-0.682l-0.001 0.001 0.524-0.524c0.181-0.181 0.431-0.292 0.707-0.292s0.526 0.112 0.707 0.292v0zM1.667 16c0-0.552 0.448-1 1-1v0h1.333c0.552 0 1 0.448 1 1s-0.448 1-1 1v0h-1.333c-0.552 0-1-0.448-1-1v0zM27 16c0-0.552 0.448-1 1-1v0h1.333c0.552 0 1 0.448 1 1s-0.448 1-1 1v0h-1.333c-0.552 0-1-0.448-1-1v0zM24.197 24.197c0.181-0.181 0.431-0.292 0.707-0.292s0.526 0.112 0.707 0.292v0l0.524 0.524c0.196 0.183 0.318 0.443 0.318 0.732 0 0.552-0.448 1-1 1-0.289 0-0.549-0.122-0.731-0.318l-0.001-0.001-0.524-0.524c-0.181-0.181-0.292-0.431-0.292-0.707s0.112-0.526 0.292-0.707v0zM7.803 24.197c0.181 0.181 0.292 0.431 0.292 0.707s-0.112 0.526-0.292 0.707v0l-0.524 0.524c-0.183 0.196-0.443 0.318-0.732 0.318-0.552 0-1-0.448-1-1 0-0.289 0.122-0.549 0.318-0.731l0.001-0.001 0.523-0.524c0.181-0.181 0.431-0.293 0.707-0.293s0.526 0.112 0.707 0.293v0zM16 27c0.552 0 1 0.448 1 1v0 1.333c0 0.552-0.448 1-1 1s-1-0.448-1-1v0-1.333c0-0.552 0.448-1 1-1v0z"></path>
</symbol>
<symbol id="icon-moon" viewBox="0 0 32 32">
<path d="M26.533 3.076c-0.096-0.242-0.328-0.41-0.6-0.41s-0.504 0.168-0.598 0.406l-0.002 0.004-0.573 1.46c-0.066 0.168-0.196 0.298-0.358 0.364l-0.004 0.002-1.455 0.576c-0.241 0.098-0.408 0.33-0.408 0.602s0.167 0.504 0.404 0.6l0.004 0.002 1.455 0.576c0.167 0.065 0.297 0.197 0.363 0.364l0.573 1.459c0.216 0.547 0.987 0.547 1.2 0l0.573-1.46c0.066-0.167 0.197-0.298 0.36-0.362l0.004-0.002 1.455-0.576c0.241-0.098 0.408-0.33 0.408-0.602s-0.167-0.504-0.404-0.6l-0.004-0.002-1.455-0.576c-0.168-0.067-0.298-0.197-0.363-0.361l-0.002-0.004zM21.377 10.84c-0.096-0.242-0.328-0.41-0.6-0.41s-0.504 0.168-0.598 0.406l-0.002 0.004-0.209 0.532c-0.066 0.167-0.196 0.297-0.358 0.362l-0.004 0.002-0.531 0.211c-0.241 0.098-0.408 0.33-0.408 0.602s0.167 0.504 0.404 0.6l0.004 0.002 0.531 0.209c0.167 0.067 0.297 0.197 0.363 0.365l0.209 0.532c0.215 0.547 0.985 0.547 1.2 0l0.209-0.533c0.066-0.167 0.196-0.297 0.358-0.362l0.004-0.002 0.531-0.209c0.241-0.098 0.408-0.33 0.408-0.602s-0.167-0.504-0.404-0.6l-0.004-0.002-0.531-0.211c-0.167-0.067-0.296-0.197-0.361-0.36l-0.002-0.004z"></path>
<path d="M16 29.333c7.364 0 13.333-5.969 13.333-13.333 0-0.617-0.925-0.72-1.244-0.191-1.544 2.527-4.288 4.187-7.419 4.187-4.786 0-8.667-3.88-8.667-8.667 0-3.131 1.661-5.875 4.149-7.398l0.038-0.022c0.529-0.32 0.427-1.244-0.191-1.244-7.364 0-13.333 5.969-13.333 13.333s5.969 13.333 13.333 13.333z"></path>
</symbol>
</defs>
</svg>
